<svg width="540" height="472" viewBox="0 0 540 472" fill="none" xmlns="http://www.w3.org/2000/svg">
<g filter="url(#filter0_d_1420_29640)">
<rect x="195" y="155" width="108" height="108" rx="24" fill="white"/>
</g>
<path d="M235.189 205.229C235.189 206.021 235.274 206.664 235.421 207.136C235.589 207.607 235.8 208.121 236.095 208.679C236.2 208.85 236.242 209.021 236.242 209.171C236.242 209.386 236.116 209.6 235.842 209.814L234.516 210.714C234.326 210.843 234.137 210.907 233.968 210.907C233.758 210.907 233.547 210.8 233.337 210.607C233.042 210.286 232.789 209.943 232.579 209.6C232.368 209.236 232.158 208.829 231.926 208.336C230.284 210.307 228.221 211.293 225.737 211.293C223.968 211.293 222.558 210.779 221.526 209.75C220.495 208.721 219.968 207.35 219.968 205.636C219.968 203.814 220.6 202.336 221.884 201.221C223.168 200.107 224.874 199.55 227.042 199.55C227.758 199.55 228.495 199.614 229.274 199.721C230.052 199.829 230.852 200 231.695 200.193V198.629C231.695 197 231.358 195.864 230.705 195.2C230.031 194.536 228.895 194.214 227.274 194.214C226.537 194.214 225.779 194.3 225 194.493C224.221 194.686 223.463 194.921 222.726 195.221C222.389 195.371 222.137 195.457 221.989 195.5C221.842 195.543 221.737 195.564 221.652 195.564C221.358 195.564 221.21 195.35 221.21 194.9V193.85C221.21 193.507 221.252 193.25 221.358 193.1C221.463 192.95 221.652 192.8 221.947 192.65C222.684 192.264 223.568 191.943 224.6 191.686C225.631 191.407 226.726 191.279 227.884 191.279C230.389 191.279 232.221 191.857 233.4 193.014C234.558 194.171 235.147 195.929 235.147 198.286V205.229H235.189ZM226.642 208.486C227.337 208.486 228.052 208.357 228.81 208.1C229.568 207.843 230.242 207.371 230.81 206.729C231.147 206.321 231.4 205.871 231.526 205.357C231.652 204.843 231.737 204.221 231.737 203.493V202.593C231.126 202.443 230.474 202.314 229.8 202.229C229.126 202.143 228.474 202.1 227.821 202.1C226.41 202.1 225.379 202.379 224.684 202.957C223.989 203.536 223.652 204.35 223.652 205.421C223.652 206.429 223.905 207.179 224.431 207.693C224.937 208.229 225.674 208.486 226.642 208.486ZM243.547 210.8C243.168 210.8 242.916 210.736 242.747 210.586C242.579 210.457 242.431 210.157 242.305 209.75L237.358 193.186C237.231 192.757 237.168 192.479 237.168 192.329C237.168 191.986 237.337 191.793 237.674 191.793H239.737C240.137 191.793 240.41 191.857 240.558 192.007C240.726 192.136 240.852 192.436 240.979 192.843L244.516 207.029L247.8 192.843C247.905 192.414 248.031 192.136 248.2 192.007C248.368 191.879 248.663 191.793 249.042 191.793H250.726C251.126 191.793 251.4 191.857 251.568 192.007C251.737 192.136 251.884 192.436 251.968 192.843L255.295 207.2L258.937 192.843C259.063 192.414 259.21 192.136 259.358 192.007C259.526 191.879 259.8 191.793 260.179 191.793H262.137C262.474 191.793 262.663 191.964 262.663 192.329C262.663 192.436 262.642 192.543 262.621 192.671C262.6 192.8 262.558 192.971 262.474 193.207L257.4 209.771C257.274 210.2 257.126 210.479 256.958 210.607C256.789 210.736 256.516 210.821 256.158 210.821H254.347C253.947 210.821 253.674 210.757 253.505 210.607C253.337 210.457 253.189 210.179 253.105 209.75L249.842 195.929L246.6 209.729C246.495 210.157 246.368 210.436 246.2 210.586C246.031 210.736 245.737 210.8 245.358 210.8H243.547ZM270.6 211.379C269.505 211.379 268.41 211.25 267.358 210.993C266.305 210.736 265.484 210.457 264.937 210.136C264.6 209.943 264.368 209.729 264.284 209.536C264.2 209.343 264.158 209.129 264.158 208.936V207.843C264.158 207.393 264.326 207.179 264.642 207.179C264.768 207.179 264.895 207.2 265.021 207.243C265.147 207.286 265.337 207.371 265.547 207.457C266.263 207.779 267.042 208.036 267.863 208.207C268.705 208.379 269.526 208.464 270.368 208.464C271.695 208.464 272.726 208.229 273.442 207.757C274.158 207.286 274.537 206.6 274.537 205.721C274.537 205.121 274.347 204.629 273.968 204.221C273.589 203.814 272.874 203.45 271.842 203.107L268.789 202.143C267.252 201.65 266.116 200.921 265.421 199.957C264.726 199.014 264.368 197.964 264.368 196.85C264.368 195.95 264.558 195.157 264.937 194.471C265.316 193.786 265.821 193.186 266.452 192.714C267.084 192.221 267.8 191.857 268.642 191.6C269.484 191.343 270.368 191.236 271.295 191.236C271.758 191.236 272.242 191.257 272.705 191.321C273.189 191.386 273.631 191.471 274.074 191.557C274.495 191.664 274.895 191.771 275.274 191.9C275.652 192.029 275.947 192.157 276.158 192.286C276.452 192.457 276.663 192.629 276.789 192.821C276.916 192.993 276.979 193.229 276.979 193.529V194.536C276.979 194.986 276.81 195.221 276.495 195.221C276.326 195.221 276.052 195.136 275.695 194.964C274.495 194.407 273.147 194.129 271.652 194.129C270.452 194.129 269.505 194.321 268.852 194.729C268.2 195.136 267.863 195.757 267.863 196.636C267.863 197.236 268.074 197.75 268.495 198.157C268.916 198.564 269.695 198.971 270.81 199.336L273.8 200.3C275.316 200.793 276.41 201.479 277.063 202.357C277.716 203.236 278.031 204.243 278.031 205.357C278.031 206.279 277.842 207.114 277.484 207.843C277.105 208.571 276.6 209.214 275.947 209.729C275.295 210.264 274.516 210.65 273.61 210.929C272.663 211.229 271.674 211.379 270.6 211.379Z" fill="#252F3E"/>
<path fill-rule="evenodd" clip-rule="evenodd" d="M274.579 221.793C267.653 227 257.589 229.764 248.937 229.764C236.81 229.764 225.884 225.2 217.631 217.614C216.979 217.014 217.568 216.2 218.347 216.671C227.274 221.943 238.284 225.136 249.674 225.136C257.358 225.136 265.8 223.507 273.568 220.164C274.726 219.629 275.716 220.936 274.579 221.793Z" fill="#FF9900"/>
<path fill-rule="evenodd" clip-rule="evenodd" d="M277.463 218.45C276.579 217.293 271.61 217.893 269.358 218.171C268.684 218.257 268.579 217.657 269.189 217.207C273.147 214.379 279.653 215.193 280.411 216.136C281.168 217.1 280.2 223.721 276.495 226.893C275.926 227.386 275.379 227.129 275.632 226.486C276.474 224.364 278.347 219.586 277.463 218.45Z" fill="#FF9900"/>
<g filter="url(#filter1_d_1420_29640)">
<rect x="414" y="56" width="108" height="108" rx="24" fill="white"/>
</g>
<g clip-path="url(#clip0_1420_29640)">
<path fill-rule="evenodd" clip-rule="evenodd" d="M467.524 135L476.898 106.15H458.125L467.524 135Z" fill="#E24329"/>
<path fill-rule="evenodd" clip-rule="evenodd" d="M467.524 135L458.125 106.125H444.987L467.524 135Z" fill="#FC6D26"/>
<path fill-rule="evenodd" clip-rule="evenodd" d="M444.987 106.125L442.121 114.909C441.854 115.71 442.146 116.583 442.826 117.069L467.5 134.976L444.987 106.125Z" fill="#FCA326"/>
<path fill-rule="evenodd" clip-rule="evenodd" d="M444.987 106.125H458.15L452.467 88.7522C452.175 87.8544 450.913 87.8544 450.621 88.7522L444.987 106.125Z" fill="#E24329"/>
<path fill-rule="evenodd" clip-rule="evenodd" d="M467.524 135L476.898 106.15H490.061L467.524 135Z" fill="#FC6D26"/>
<path fill-rule="evenodd" clip-rule="evenodd" d="M490.061 106.125L492.903 114.885C493.17 115.686 492.878 116.559 492.198 117.044L467.524 134.952L490.061 106.125Z" fill="#FCA326"/>
<path fill-rule="evenodd" clip-rule="evenodd" d="M490.061 106.125H476.898L482.557 88.7522C482.848 87.8544 484.111 87.8544 484.403 88.7522L490.061 106.125Z" fill="#E24329"/>
</g>
<g filter="url(#filter2_d_1420_29640)">
<rect x="18" y="13" width="108" height="108" rx="24" fill="#0065FF"/>
</g>
<path d="M51.7183 81.1296C51.2551 81.8569 50.7257 82.7164 50.3287 83.3775C49.9317 84.0387 50.1302 84.8982 50.7919 85.2949L59.8574 90.8485C60.5191 91.2452 61.3794 91.0468 61.7764 90.3857C62.1072 89.7906 62.5704 88.9973 63.0998 88.1378C66.6731 82.2536 70.3125 82.9147 76.7972 86.0221L85.7965 90.2534C86.5244 90.584 87.3185 90.2534 87.6494 89.5923L91.9505 79.8735C92.2813 79.2123 91.9505 78.3528 91.2888 78.0223C89.3698 77.1628 85.5981 75.3777 82.2895 73.7248C69.9816 67.9067 59.6589 68.2373 51.7183 81.1296Z" fill="url(#paint0_linear_1420_29640)"/>
<path d="M92.2815 59.0474C92.7447 58.3201 93.2741 57.4606 93.6711 56.7995C94.0681 56.1383 93.8697 55.2788 93.2079 54.8822L84.1424 49.3285C83.4807 48.9318 82.6204 49.1302 82.2234 49.7913C81.8926 50.3864 81.4294 51.1797 80.9 52.0392C77.3267 57.9234 73.6873 57.2623 67.2025 54.1549L58.2032 49.9236C57.4753 49.593 56.6812 49.9236 56.3504 50.5847L52.0492 60.3036C51.7184 60.9647 52.0492 61.8242 52.7109 62.1548C54.6299 63.0143 58.4017 64.7993 61.7103 66.4522C74.0181 72.2703 84.341 71.8736 92.2815 59.0474Z" fill="url(#paint1_linear_1420_29640)"/>
<g filter="url(#filter3_d_1420_29640)">
<rect x="109" y="341" width="108" height="108" rx="24" fill="#2F3038"/>
</g>
<path d="M164 395.001C164 390.307 167.806 386.501 172.5 386.501C177.194 386.501 181 390.307 181 395.001C181 399.696 177.194 403.501 172.5 403.501C167.806 403.501 164 399.696 164 395.001Z" fill="#1ABCFE"/>
<path d="M147 412C147 407.306 150.806 403.5 155.5 403.5H164V412C164 416.694 160.194 420.5 155.5 420.5C150.806 420.5 147 416.694 147 412Z" fill="#0ACF83"/>
<path d="M164 369.5V386.5H172.5C177.194 386.5 181 382.694 181 378C181 373.306 177.194 369.5 172.5 369.5H164Z" fill="#FF7262"/>
<path d="M147 378C147 382.694 150.806 386.5 155.5 386.5H164V369.5H155.5C150.806 369.5 147 373.306 147 378Z" fill="#F24E1E"/>
<path d="M147 395.001C147 399.696 150.806 403.501 155.5 403.501H164V386.501H155.5C150.806 386.501 147 390.307 147 395.001Z" fill="#A259FF"/>
<g filter="url(#filter4_d_1420_29640)">
<rect x="343" y="323" width="108" height="108" rx="24" fill="white"/>
</g>
<path d="M407.535 371.242H422.546C422.883 371.242 423.217 371.308 423.529 371.437C423.84 371.565 424.123 371.754 424.362 371.993C424.6 372.231 424.789 372.514 424.919 372.825C425.048 373.137 425.114 373.471 425.114 373.808V387.465C425.113 388.704 424.869 389.93 424.394 391.075C423.92 392.219 423.224 393.258 422.348 394.134C421.471 395.009 420.431 395.704 419.286 396.177C418.142 396.651 416.915 396.894 415.676 396.893H415.632C414.393 396.894 413.167 396.651 412.022 396.178C410.877 395.705 409.837 395.011 408.96 394.135C408.084 393.26 407.389 392.221 406.914 391.077C406.439 389.933 406.195 388.706 406.194 387.467V387.467V372.591C406.193 372.414 406.227 372.239 406.294 372.075C406.361 371.912 406.459 371.763 406.584 371.638C406.709 371.512 406.857 371.413 407.02 371.345C407.183 371.277 407.358 371.242 407.535 371.242Z" fill="#5059C9"/>
<path d="M417.681 368.559C418.882 368.558 420.056 368.2 421.054 367.532C422.052 366.864 422.829 365.914 423.288 364.804C423.747 363.694 423.866 362.473 423.631 361.295C423.395 360.117 422.816 359.035 421.966 358.186C421.116 357.337 420.034 356.759 418.856 356.526C417.677 356.292 416.456 356.412 415.347 356.872C414.237 357.332 413.289 358.111 412.621 359.11C411.954 360.109 411.598 361.283 411.598 362.484C411.599 364.096 412.241 365.642 413.382 366.781C414.522 367.92 416.068 368.56 417.681 368.559Z" fill="#5059C9"/>
<path d="M398.761 368.559C400.497 368.559 402.195 368.044 403.638 367.08C405.082 366.115 406.208 364.744 406.872 363.14C407.537 361.535 407.71 359.77 407.372 358.067C407.033 356.364 406.197 354.799 404.969 353.572C403.741 352.344 402.177 351.507 400.473 351.169C398.77 350.83 397.005 351.004 395.401 351.668C393.797 352.333 392.425 353.458 391.461 354.902C390.496 356.346 389.981 358.043 389.981 359.78C389.981 362.108 390.906 364.341 392.552 365.988C394.199 367.634 396.432 368.559 398.761 368.559V368.559Z" fill="#7B83EB"/>
<path d="M410.474 371.242H385.696C385.362 371.25 385.033 371.324 384.728 371.46C384.423 371.595 384.148 371.789 383.918 372.031C383.687 372.273 383.507 372.558 383.387 372.869C383.267 373.181 383.21 373.513 383.218 373.847V389.423C383.127 393.461 384.642 397.371 387.432 400.291C390.222 403.212 394.057 404.906 398.095 405C402.133 404.906 405.968 403.212 408.758 400.291C411.548 397.371 413.063 393.461 412.972 389.423V373.847C412.98 373.511 412.922 373.178 412.801 372.865C412.68 372.552 412.498 372.266 412.266 372.024C412.033 371.782 411.756 371.588 411.448 371.454C411.141 371.32 410.81 371.248 410.474 371.242V371.242Z" fill="#7B83EB"/>
<path opacity="0.1" d="M399.436 371.242V393.072C399.432 393.562 399.284 394.04 399.01 394.446C398.736 394.852 398.348 395.168 397.895 395.355C397.6 395.479 397.283 395.542 396.963 395.542H384.406C384.23 395.096 384.069 394.652 383.933 394.194C383.461 392.644 383.22 391.033 383.218 389.414V373.842C383.209 373.509 383.266 373.177 383.386 372.866C383.506 372.555 383.686 372.27 383.915 372.029C384.145 371.787 384.42 371.594 384.725 371.459C385.03 371.324 385.358 371.25 385.691 371.242H399.436Z" fill="black"/>
<path opacity="0.2" d="M398.085 371.242V394.423C398.084 394.743 398.019 395.06 397.894 395.355C397.707 395.807 397.391 396.195 396.984 396.469C396.578 396.743 396.099 396.89 395.609 396.893H385.047C384.818 396.447 384.6 396.001 384.41 395.542C384.23 395.101 384.072 394.651 383.937 394.194C383.465 392.644 383.224 391.033 383.223 389.414V373.842C383.214 373.509 383.271 373.178 383.39 372.867C383.509 372.556 383.689 372.272 383.918 372.031C384.147 371.789 384.422 371.595 384.726 371.46C385.03 371.325 385.358 371.251 385.691 371.242H398.085Z" fill="black"/>
<path opacity="0.2" d="M398.085 371.242V391.728C398.079 392.382 397.817 393.007 397.354 393.469C396.892 393.932 396.266 394.193 395.612 394.199H383.935C383.462 392.649 383.221 391.038 383.218 389.418V373.842C383.209 373.509 383.266 373.177 383.386 372.866C383.506 372.555 383.686 372.27 383.915 372.029C384.145 371.787 384.42 371.594 384.725 371.459C385.03 371.324 385.358 371.25 385.691 371.242H398.085Z" fill="black"/>
<path opacity="0.2" d="M396.734 371.242V391.728C396.728 392.382 396.465 393.008 396.002 393.47C395.539 393.932 394.913 394.193 394.259 394.199H383.935C383.462 392.649 383.221 391.038 383.218 389.418V373.842C383.209 373.509 383.266 373.177 383.386 372.866C383.506 372.555 383.686 372.27 383.915 372.029C384.145 371.787 384.42 371.594 384.725 371.459C385.03 371.324 385.358 371.25 385.691 371.242H396.734Z" fill="black"/>
<path opacity="0.1" d="M399.436 364.27V368.523C399.207 368.537 398.99 368.55 398.76 368.55C398.531 368.55 398.314 368.55 398.085 368.523C397.628 368.493 397.175 368.42 396.731 368.306C395.384 367.986 394.131 367.353 393.075 366.457C392.019 365.561 391.191 364.428 390.656 363.15C390.469 362.714 390.324 362.262 390.222 361.799H396.968C397.622 361.803 398.248 362.064 398.71 362.527C399.172 362.99 399.433 363.616 399.436 364.27V364.27Z" fill="black"/>
<path opacity="0.2" d="M398.085 365.633V368.535C397.628 368.505 397.175 368.433 396.732 368.318C395.383 367.997 394.129 367.362 393.074 366.464C392.018 365.565 391.189 364.43 390.657 363.15H395.617C396.273 363.154 396.901 363.417 397.363 363.882C397.826 364.348 398.085 364.977 398.085 365.633Z" fill="black"/>
<path opacity="0.2" d="M398.085 365.633V368.535C397.628 368.505 397.175 368.433 396.732 368.318C395.383 367.997 394.129 367.362 393.074 366.464C392.018 365.565 391.189 364.43 390.657 363.15H395.617C396.273 363.154 396.901 363.417 397.363 363.882C397.826 364.348 398.085 364.977 398.085 365.633Z" fill="black"/>
<path opacity="0.2" d="M396.734 365.633V368.316C395.385 367.996 394.131 367.361 393.075 366.463C392.019 365.565 391.19 364.43 390.657 363.15H394.266C394.922 363.153 395.55 363.416 396.013 363.882C396.476 364.347 396.735 364.977 396.734 365.633V365.633Z" fill="black"/>
<path d="M369.478 363.15H394.256C394.582 363.15 394.905 363.214 395.206 363.339C395.507 363.463 395.78 363.646 396.011 363.877C396.241 364.108 396.423 364.381 396.547 364.683C396.671 364.984 396.735 365.307 396.734 365.633V390.375C396.734 390.7 396.67 391.022 396.545 391.322C396.421 391.623 396.238 391.896 396.008 392.126C395.778 392.356 395.505 392.538 395.204 392.662C394.904 392.786 394.581 392.85 394.256 392.85H369.478C369.153 392.85 368.83 392.786 368.53 392.662C368.229 392.538 367.956 392.356 367.726 392.126C367.496 391.896 367.313 391.623 367.189 391.322C367.064 391.022 367 390.7 367 390.375V365.633C366.999 365.307 367.062 364.984 367.187 364.683C367.311 364.381 367.493 364.108 367.723 363.877C367.954 363.646 368.227 363.463 368.528 363.339C368.829 363.214 369.152 363.15 369.478 363.15V363.15Z" fill="url(#paint2_linear_1420_29640)"/>
<path d="M388.388 372.571H383.435V386.043H380.279V372.571H375.348V369.957H388.388V372.571Z" fill="white"/>
<defs>
<filter id="filter0_d_1420_29640" x="177" y="142" width="144" height="144" filterUnits="userSpaceOnUse" color-interpolation-filters="sRGB">
<feFlood flood-opacity="0" result="BackgroundImageFix"/>
<feColorMatrix in="SourceAlpha" type="matrix" values="0 0 0 0 0 0 0 0 0 0 0 0 0 0 0 0 0 0 127 0" result="hardAlpha"/>
<feOffset dy="5"/>
<feGaussianBlur stdDeviation="9"/>
<feColorMatrix type="matrix" values="0 0 0 0 0.0352941 0 0 0 0 0.117647 0 0 0 0 0.258824 0 0 0 0.15 0"/>
<feBlend mode="normal" in2="BackgroundImageFix" result="effect1_dropShadow_1420_29640"/>
<feBlend mode="normal" in="SourceGraphic" in2="effect1_dropShadow_1420_29640" result="shape"/>
</filter>
<filter id="filter1_d_1420_29640" x="396" y="43" width="144" height="144" filterUnits="userSpaceOnUse" color-interpolation-filters="sRGB">
<feFlood flood-opacity="0" result="BackgroundImageFix"/>
<feColorMatrix in="SourceAlpha" type="matrix" values="0 0 0 0 0 0 0 0 0 0 0 0 0 0 0 0 0 0 127 0" result="hardAlpha"/>
<feOffset dy="5"/>
<feGaussianBlur stdDeviation="9"/>
<feColorMatrix type="matrix" values="0 0 0 0 0.0352941 0 0 0 0 0.117647 0 0 0 0 0.258824 0 0 0 0.15 0"/>
<feBlend mode="normal" in2="BackgroundImageFix" result="effect1_dropShadow_1420_29640"/>
<feBlend mode="normal" in="SourceGraphic" in2="effect1_dropShadow_1420_29640" result="shape"/>
</filter>
<filter id="filter2_d_1420_29640" x="0" y="0" width="144" height="144" filterUnits="userSpaceOnUse" color-interpolation-filters="sRGB">
<feFlood flood-opacity="0" result="BackgroundImageFix"/>
<feColorMatrix in="SourceAlpha" type="matrix" values="0 0 0 0 0 0 0 0 0 0 0 0 0 0 0 0 0 0 127 0" result="hardAlpha"/>
<feOffset dy="5"/>
<feGaussianBlur stdDeviation="9"/>
<feColorMatrix type="matrix" values="0 0 0 0 0.0352941 0 0 0 0 0.117647 0 0 0 0 0.258824 0 0 0 0.15 0"/>
<feBlend mode="normal" in2="BackgroundImageFix" result="effect1_dropShadow_1420_29640"/>
<feBlend mode="normal" in="SourceGraphic" in2="effect1_dropShadow_1420_29640" result="shape"/>
</filter>
<filter id="filter3_d_1420_29640" x="91" y="328" width="144" height="144" filterUnits="userSpaceOnUse" color-interpolation-filters="sRGB">
<feFlood flood-opacity="0" result="BackgroundImageFix"/>
<feColorMatrix in="SourceAlpha" type="matrix" values="0 0 0 0 0 0 0 0 0 0 0 0 0 0 0 0 0 0 127 0" result="hardAlpha"/>
<feOffset dy="5"/>
<feGaussianBlur stdDeviation="9"/>
<feColorMatrix type="matrix" values="0 0 0 0 0.0352941 0 0 0 0 0.117647 0 0 0 0 0.258824 0 0 0 0.15 0"/>
<feBlend mode="normal" in2="BackgroundImageFix" result="effect1_dropShadow_1420_29640"/>
<feBlend mode="normal" in="SourceGraphic" in2="effect1_dropShadow_1420_29640" result="shape"/>
</filter>
<filter id="filter4_d_1420_29640" x="325" y="310" width="144" height="144" filterUnits="userSpaceOnUse" color-interpolation-filters="sRGB">
<feFlood flood-opacity="0" result="BackgroundImageFix"/>
<feColorMatrix in="SourceAlpha" type="matrix" values="0 0 0 0 0 0 0 0 0 0 0 0 0 0 0 0 0 0 127 0" result="hardAlpha"/>
<feOffset dy="5"/>
<feGaussianBlur stdDeviation="9"/>
<feColorMatrix type="matrix" values="0 0 0 0 0.0352941 0 0 0 0 0.117647 0 0 0 0 0.258824 0 0 0 0.15 0"/>
<feBlend mode="normal" in2="BackgroundImageFix" result="effect1_dropShadow_1420_29640"/>
<feBlend mode="normal" in="SourceGraphic" in2="effect1_dropShadow_1420_29640" result="shape"/>
</filter>
<linearGradient id="paint0_linear_1420_29640" x1="91.6961" y1="93.744" x2="64.335" y2="78.008" gradientUnits="userSpaceOnUse">
<stop stop-color="white" stop-opacity="0.4"/>
<stop offset="1" stop-color="white"/>
</linearGradient>
<linearGradient id="paint1_linear_1420_29640" x1="52.2964" y1="46.4159" x2="79.6574" y2="62.152" gradientUnits="userSpaceOnUse">
<stop offset="0.000329443" stop-color="white" stop-opacity="0.5"/>
<stop offset="1" stop-color="white"/>
</linearGradient>
<linearGradient id="paint2_linear_1420_29640" x1="372.182" y1="361.206" x2="391.551" y2="394.794" gradientUnits="userSpaceOnUse">
<stop stop-color="#5A62C3"/>
<stop offset="0.5" stop-color="#4D55BD"/>
<stop offset="1" stop-color="#3940AB"/>
</linearGradient>
<clipPath id="clip0_1420_29640">
<rect width="51" height="47" fill="white" transform="translate(442 88)"/>
</clipPath>
</defs>
</svg>
