<svg width="445" height="199" viewBox="0 0 445 199" fill="none" xmlns="http://www.w3.org/2000/svg">
<path d="M0 0.0899919C0 0.0402862 0.0402944 0 0.09 0H345.5C400.452 0 445 44.5477 445 99.5V99.5C445 154.452 400.452 199 345.5 199H0V0.0899919Z" fill="url(#paint0_linear_1420_29867)"/>
<path d="M263.321 103.822V89.8813H278.448V103.822H263.321ZM294.11 62H276.839V75.8326H265.145V62H246.908V75.8326H235V91.7184H246.908V101.985H235V118.627H246.908V133H265.145V118.627H276.839V133H294.11V118.627H306.769V101.985H294.11V91.7184H306.769V75.8326H294.11V62Z" fill="url(#paint1_linear_1420_29867)"/>
<path d="M343 133V62H328.517L310.816 67.8356V87.2877L320.901 83.5053V133H343Z" fill="url(#paint2_linear_1420_29867)"/>
<defs>
<linearGradient id="paint0_linear_1420_29867" x1="445" y1="89.9707" x2="86.2908" y2="105.101" gradientUnits="userSpaceOnUse">
<stop stop-color="#B3D4FF"/>
<stop offset="1" stop-color="#DEEBFF" stop-opacity="0"/>
</linearGradient>
<linearGradient id="paint1_linear_1420_29867" x1="321.17" y1="62" x2="259.934" y2="133.199" gradientUnits="userSpaceOnUse">
<stop stop-color="#4C9AFF"/>
<stop offset="1" stop-color="#0153CD"/>
</linearGradient>
<linearGradient id="paint2_linear_1420_29867" x1="321.17" y1="62" x2="259.934" y2="133.199" gradientUnits="userSpaceOnUse">
<stop stop-color="#4C9AFF"/>
<stop offset="1" stop-color="#0153CD"/>
</linearGradient>
</defs>
</svg>
